PathFileType	4	(X/Y/Z)	joints.trc
DataRate	CameraRate	NumFrames	NumMarkers	Units	OrigDataRate	OrigDataStartFrame	OrigNumFrames
30.0	30.0	8	24	m	30.0	81	120
Frame#	Time	pelvis			femur_r			tibia_r			talus_r			calcn_r			toes_r			femur_l			tibia_l			talus_l			calcn_l			toes_l			lumbar_body			thorax			head			scapula_r			humerus_r			ulna_r			radius_r			hand_r			scapula_l			humerus_l			ulna_l			radius_l			hand_l		
		X1	Y1	Z1	X2	Y2	Z2	X3	Y3	Z3	X4	Y4	Z4	X5	Y5	Z5	X6	Y6	Z6	X7	Y7	Z7	X8	Y8	Z8	X9	Y9	Z9	X10	Y10	Z10	X11	Y11	Z11	X12	Y12	Z12	X13	Y13	Z13	X14	Y14	Z14	X15	Y15	Z15	X16	Y16	Z16	X17	Y17	Z17	X18	Y18	Z18	X19	Y19	Z19	X20	Y20	Z20	X21	Y21	Z21	X22	Y22	Z22	X23	Y23	Z23	X24	Y24	Z24
81	2.666667	0.026238	0.888320	-0.178826	0.024730	0.928060	-0.116292	-0.110480	0.452313	-0.103448	-0.133925	0.068315	-0.144060	-0.123854	-0.008869	-0.210827	-0.156360	0.008207	0.005311	0.132934	0.905900	-0.073667	0.218221	0.442038	-0.104054	0.245900	0.050372	-0.151563	0.229721	-0.018664	-0.161806	0.269217	-0.032442	-0.011290	0.054402	1.104779	-0.108616	0.077320	1.446920	-0.030839	0.052667	1.636538	-0.085775	-0.143047	1.703157	-0.018360	-0.102118	1.369500	-0.024875	-0.181324	1.095325	0.002869	-0.165137	1.136388	-0.022243	-0.317272	0.919704	0.080864	0.271903	1.831390	-0.112120	0.255126	1.298907	-0.089101	0.289532	1.098741	-0.071529	0.295097	1.088201	-0.093678	0.460463	0.898026	0.021083
82	2.700000	0.025985	0.887604	-0.177861	0.024403	0.927895	-0.115392	-0.110214	0.452193	-0.102305	-0.133521	0.068388	-0.143266	-0.123429	-0.008974	-0.209892	-0.155892	0.008155	0.006053	0.132511	0.905769	-0.072812	0.217546	0.441884	-0.103260	0.245236	0.050428	-0.151687	0.229062	-0.018625	-0.161908	0.268722	-0.032260	-0.011453	0.053842	1.104344	-0.107301	0.076728	1.447052	-0.030147	0.051636	1.636596	-0.084322	-0.143700	1.702251	-0.018417	-0.103163	1.369095	-0.024931	-0.182881	1.094237	-0.001874	-0.166820	1.135434	-0.026806	-0.320159	0.917236	0.073947	0.271238	1.830409	-0.110534	0.254360	1.298942	-0.087711	0.289419	1.098921	-0.070842	0.294944	1.088283	-0.092595	0.460040	0.897635	0.020726
83	2.733333	0.025693	0.886817	-0.176938	0.024023	0.927729	-0.114431	-0.109999	0.452077	-0.100894	-0.133157	0.068460	-0.142344	-0.123024	-0.009068	-0.208866	-0.155478	0.008153	0.006903	0.131982	0.905650	-0.071945	0.216738	0.441746	-0.102099	0.244462	0.050447	-0.151688	0.228291	-0.018490	-0.161888	0.268183	-0.032079	-0.011525	0.053152	1.103832	-0.105751	0.076045	1.447220	-0.029276	0.050571	1.636636	-0.082605	-0.144447	1.701379	-0.018187	-0.104372	1.368836	-0.024653	-0.184601	1.093474	-0.005418	-0.168650	1.134791	-0.030252	-0.323065	0.915547	0.068935	0.270467	1.829311	-0.108717	0.253465	1.299035	-0.086112	0.289305	1.099177	-0.069675	0.294790	1.088430	-0.091064	0.459675	0.897466	0.020958
84	2.766667	0.025359	0.885937	-0.176177	0.023548	0.927534	-0.113495	-0.109701	0.451912	-0.099026	-0.132631	0.068604	-0.141280	-0.122524	-0.009118	-0.207677	-0.154861	0.008184	0.007837	0.131326	0.905510	-0.071134	0.215563	0.441540	-0.100356	0.243297	0.050314	-0.151687	0.227147	-0.018285	-0.161854	0.267324	-0.031924	-0.011581	0.052327	1.103206	-0.103962	0.075264	1.447396	-0.028006	0.049492	1.636658	-0.080307	-0.145323	1.700382	-0.017624	-0.105810	1.368632	-0.023986	-0.186587	1.092815	-0.008761	-0.170749	1.134260	-0.033547	-0.326176	0.914117	0.064389	0.269612	1.827987	-0.106416	0.252439	1.299220	-0.084082	0.289122	1.099578	-0.068083	0.294554	1.088730	-0.089065	0.459080	0.897553	0.021734
85	2.800000	0.024977	0.885003	-0.175724	0.022893	0.927359	-0.112679	-0.109084	0.451727	-0.096285	-0.131607	0.069047	-0.140223	-0.121792	-0.008949	-0.206455	-0.153621	0.008337	0.008598	0.130559	0.905399	-0.070412	0.213880	0.441213	-0.097013	0.241592	0.050167	-0.151827	0.225494	-0.017911	-0.161933	0.265969	-0.031610	-0.011757	0.051332	1.102471	-0.101749	0.074346	1.447627	-0.025770	0.048341	1.636712	-0.076582	-0.146406	1.699156	-0.016341	-0.107639	1.368558	-0.022477	-0.188955	1.092320	-0.012074	-0.173236	1.133919	-0.036825	-0.329607	0.912853	0.059853	0.268640	1.826269	-0.103007	0.251193	1.299667	-0.081069	0.288746	1.100369	-0.065960	0.294103	1.089450	-0.086371	0.458034	0.898128	0.023299
86	2.833333	0.024556	0.883791	-0.176165	0.021794	0.926868	-0.112317	-0.107700	0.451245	-0.090703	-0.129421	0.070038	-0.138776	-0.120455	-0.008418	-0.204983	-0.151049	0.008695	0.009285	0.129690	0.904984	-0.069994	0.211567	0.440452	-0.088795	0.239236	0.050412	-0.152874	0.223240	-0.017224	-0.162849	0.264011	-0.030735	-0.012576	0.050152	1.101237	-0.099114	0.073195	1.447514	-0.021277	0.046885	1.636299	-0.069319	-0.147751	1.696837	-0.013392	-0.110087	1.368268	-0.019045	-0.191868	1.091797	-0.014818	-0.176285	1.133576	-0.039502	-0.333435	0.911502	0.055711	0.267432	1.823160	-0.097105	0.249494	1.300257	-0.075872	0.288118	1.101603	-0.063019	0.293366	1.090656	-0.082381	0.456373	0.899203	0.026271
87	2.866667	0.024176	0.880539	-0.178878	0.019649	0.923738	-0.113132	-0.105506	0.449004	-0.078217	-0.126104	0.071465	-0.136353	-0.118710	-0.007270	-0.203891	-0.147631	0.009337	0.009736	0.128550	0.901912	-0.070452	0.208853	0.438415	-0.068013	0.236414	0.052469	-0.153800	0.220591	-0.015516	-0.163615	0.261771	-0.028047	-0.012942	0.049014	1.097204	-0.097679	0.071983	1.444244	-0.012885	0.045637	1.632513	-0.055741	-0.148992	1.689731	-0.007140	-0.112832	1.364988	-0.012035	-0.194704	1.088717	-0.014470	-0.179317	1.130515	-0.038965	-0.336774	0.907400	0.054649	0.266143	1.814769	-0.087553	0.247394	1.298161	-0.067538	0.287310	1.100737	-0.059536	0.292487	1.089638	-0.076964	0.454848	0.898023	0.030602
88	2.900000	0.023973	0.874359	-0.186252	0.016829	0.916429	-0.116611	-0.103901	0.444620	-0.061764	-0.123748	0.073560	-0.135182	-0.118159	-0.004262	-0.206136	-0.146142	0.011204	0.007544	0.126877	0.894519	-0.073169	0.207316	0.434705	-0.041373	0.234954	0.055550	-0.155165	0.219153	-0.013191	-0.164831	0.260922	-0.024710	-0.014470	0.048166	1.088952	-0.101134	0.070919	1.436073	-0.004866	0.044884	1.623651	-0.042291	-0.149818	1.677334	-0.000623	-0.115156	1.356910	-0.005319	-0.196686	1.080983	-0.013129	-0.181585	1.122499	-0.037402	-0.339009	0.898543	0.054779	0.264744	1.800377	-0.079259	0.245320	1.290359	-0.060533	0.285589	1.094445	-0.057489	0.290745	1.082810	-0.072863	0.452147	0.890948	0.033600
